<mxfile host="app.diagrams.net" modified="2023-11-21T08:02:36.178Z" agent="Mozilla/5.0 (Macintosh; Intel Mac OS X 10_15_7) AppleWebKit/537.36 (KHTML, like Gecko) Chrome/114.0.0.0 Safari/537.36" version="22.1.3" etag="FDwyogO96M34H2tyO4Yc" type="github">
  <diagram name="第 1 页" id="eRPc27TUvixue1BaGPHN">
    <mxGraphModel>
      <root>
        <mxCell id="0" />
        <mxCell id="1" parent="0" />
      </root>
    </mxGraphModel>
  </diagram>
</mxfile>
